<?xml version="1.0" encoding="UTF-8" standalone="no"?>
<!DOCTYPE svg PUBLIC "-//W3C//DTD SVG 1.1//EN"
 "http://www.w3.org/Graphics/SVG/1.1/DTD/svg11.dtd">
<!-- Generated by graphviz version 5.0.0 (20220707.1540)
 -->
<!-- Title: dependencies Pages: 1 -->
<svg width="282pt" height="247pt"
 viewBox="0.00 0.00 282.00 246.80" xmlns="http://www.w3.org/2000/svg" xmlns:xlink="http://www.w3.org/1999/xlink">
<g id="graph0" class="graph" transform="scale(1 1) rotate(0) translate(4 242.8)">
<title>dependencies</title>
<polygon fill="white" stroke="transparent" points="-4,4 -4,-242.8 278,-242.8 278,4 -4,4"/>
<text text-anchor="middle" x="137" y="-8.2" font-family="sans-serif" font-size="14.00">dependencies</text>
<g id="clust1" class="cluster">
<title>cluster_DeviceInformationModule</title>
<polygon fill="none" stroke="black" stroke-dasharray="1,5" points="8,-32.8 8,-230.8 266,-230.8 266,-32.8 8,-32.8"/>
</g>
<g id="clust4" class="cluster">
<title>cluster_DeviceInformationModule_exports</title>
<polygon fill="none" stroke="black" points="45,-170.8 45,-222.8 229,-222.8 229,-170.8 45,-170.8"/>
</g>
<g id="clust6" class="cluster">
<title>cluster_DeviceInformationModule_providers</title>
<polygon fill="none" stroke="black" points="16,-40.8 16,-92.8 258,-92.8 258,-40.8 16,-40.8"/>
</g>
<!-- DeviceInformationService  -->
<g id="node1" class="node">
<title>DeviceInformationService </title>
<polygon fill="#fb8072" stroke="black" points="220.99,-214.8 53.01,-214.8 53.01,-178.8 220.99,-178.8 220.99,-214.8"/>
<text text-anchor="middle" x="137" y="-192.6" font-family="Times,serif" font-size="14.00">DeviceInformationService </text>
</g>
<!-- DeviceInformationModule -->
<g id="node2" class="node">
<title>DeviceInformationModule</title>
<polygon fill="#8dd3c7" stroke="black" points="220.06,-149.8 217.06,-153.8 196.06,-153.8 193.06,-149.8 53.94,-149.8 53.94,-113.8 220.06,-113.8 220.06,-149.8"/>
<text text-anchor="middle" x="137" y="-127.6" font-family="Times,serif" font-size="14.00">DeviceInformationModule</text>
</g>
<!-- DeviceInformationModule&#45;&gt;DeviceInformationService  -->
<g id="edge1" class="edge">
<title>DeviceInformationModule&#45;&gt;DeviceInformationService </title>
<path fill="none" stroke="black" stroke-dasharray="5,2" d="M137,-149.91C137,-149.91 137,-168.79 137,-168.79"/>
<polygon fill="black" stroke="black" points="133.5,-168.79 137,-178.79 140.5,-168.79 133.5,-168.79"/>
</g>
<!-- DeviceInformationService -->
<g id="node3" class="node">
<title>DeviceInformationService</title>
<ellipse fill="#fdb462" stroke="black" cx="137" cy="-66.8" rx="113.42" ry="18"/>
<text text-anchor="middle" x="137" y="-62.6" font-family="Times,serif" font-size="14.00">DeviceInformationService</text>
</g>
<!-- DeviceInformationService&#45;&gt;DeviceInformationModule -->
<g id="edge2" class="edge">
<title>DeviceInformationService&#45;&gt;DeviceInformationModule</title>
<path fill="none" stroke="black" d="M137,-84.91C137,-84.91 137,-103.79 137,-103.79"/>
<polygon fill="black" stroke="black" points="133.5,-103.79 137,-113.79 140.5,-103.79 133.5,-103.79"/>
</g>
</g>
</svg>
