<?xml version="1.0" encoding="UTF-8" standalone="no"?>
<!DOCTYPE svg PUBLIC "-//W3C//DTD SVG 1.1//EN"
 "http://www.w3.org/Graphics/SVG/1.1/DTD/svg11.dtd">
<!-- Generated by graphviz version 5.0.0 (20220707.1540)
 -->
<!-- Title: dependencies Pages: 1 -->
<svg width="946pt" height="185pt"
 viewBox="0.00 0.00 946.00 184.80" xmlns="http://www.w3.org/2000/svg" xmlns:xlink="http://www.w3.org/1999/xlink">
<g id="graph0" class="graph" transform="scale(1 1) rotate(0) translate(4 180.8)">
<title>dependencies</title>
<polygon fill="white" stroke="transparent" points="-4,4 -4,-180.8 942,-180.8 942,4 -4,4"/>
<text text-anchor="middle" x="469" y="-8.2" font-family="sans-serif" font-size="14.00">dependencies</text>
<g id="clust1" class="cluster">
<title>cluster_AppModule</title>
<polygon fill="none" stroke="black" stroke-dasharray="1,5" points="8,-32.8 8,-160.8 472,-160.8 472,-32.8 8,-32.8"/>
</g>
<g id="clust3" class="cluster">
<title>cluster_AppModule_imports</title>
<polygon fill="none" stroke="black" points="154,-40.8 154,-92.8 464,-92.8 464,-40.8 154,-40.8"/>
</g>
<g id="clust6" class="cluster">
<title>cluster_AppModule_providers</title>
<polygon fill="none" stroke="black" points="16,-40.8 16,-92.8 146,-92.8 146,-40.8 16,-40.8"/>
</g>
<g id="clust13" class="cluster">
<title>cluster_DeviceInformationModule</title>
<polygon fill="none" stroke="black" stroke-dasharray="1,5" points="480,-100.8 480,-168.8 930,-168.8 930,-100.8 480,-100.8"/>
</g>
<g id="clust16" class="cluster">
<title>cluster_DeviceInformationModule_exports</title>
<polygon fill="none" stroke="black" points="738,-108.8 738,-160.8 922,-160.8 922,-108.8 738,-108.8"/>
</g>
<g id="clust18" class="cluster">
<title>cluster_DeviceInformationModule_providers</title>
<polygon fill="none" stroke="black" points="488,-108.8 488,-160.8 730,-160.8 730,-108.8 488,-108.8"/>
</g>
<!-- DatabaseModule -->
<g id="node1" class="node">
<title>DatabaseModule</title>
<polygon fill="#8dd3c7" stroke="black" points="272.36,-84.8 269.36,-88.8 248.36,-88.8 245.36,-84.8 161.64,-84.8 161.64,-48.8 272.36,-48.8 272.36,-84.8"/>
<text text-anchor="middle" x="217" y="-62.6" font-family="Times,serif" font-size="14.00">DatabaseModule</text>
</g>
<!-- AppModule -->
<g id="node3" class="node">
<title>AppModule</title>
<polygon fill="#8dd3c7" stroke="black" points="258.66,-152.8 255.66,-156.8 234.66,-156.8 231.66,-152.8 175.34,-152.8 175.34,-116.8 258.66,-116.8 258.66,-152.8"/>
<text text-anchor="middle" x="217" y="-130.6" font-family="Times,serif" font-size="14.00">AppModule</text>
</g>
<!-- DatabaseModule&#45;&gt;AppModule -->
<g id="edge1" class="edge">
<title>DatabaseModule&#45;&gt;AppModule</title>
<path fill="none" stroke="black" d="M217,-85.02C217,-85.02 217,-106.53 217,-106.53"/>
<polygon fill="black" stroke="black" points="213.5,-106.53 217,-116.53 220.5,-106.53 213.5,-106.53"/>
</g>
<!-- DeviceInformationModule -->
<g id="node2" class="node">
<title>DeviceInformationModule</title>
<polygon fill="#8dd3c7" stroke="black" points="456.06,-84.8 453.06,-88.8 432.06,-88.8 429.06,-84.8 289.94,-84.8 289.94,-48.8 456.06,-48.8 456.06,-84.8"/>
<text text-anchor="middle" x="373" y="-62.6" font-family="Times,serif" font-size="14.00">DeviceInformationModule</text>
</g>
<!-- DeviceInformationModule&#45;&gt;AppModule -->
<g id="edge2" class="edge">
<title>DeviceInformationModule&#45;&gt;AppModule</title>
<path fill="none" stroke="black" d="M345.32,-85.09C345.32,-107.01 345.32,-140.8 345.32,-140.8 345.32,-140.8 269.02,-140.8 269.02,-140.8"/>
<polygon fill="black" stroke="black" points="269.02,-137.3 259.02,-140.8 269.02,-144.3 269.02,-137.3"/>
</g>
<!-- DeviceInformationService  -->
<g id="node5" class="node">
<title>DeviceInformationService </title>
<polygon fill="#fb8072" stroke="black" points="913.99,-152.8 746.01,-152.8 746.01,-116.8 913.99,-116.8 913.99,-152.8"/>
<text text-anchor="middle" x="830" y="-130.6" font-family="Times,serif" font-size="14.00">DeviceInformationService </text>
</g>
<!-- DeviceInformationModule&#45;&gt;DeviceInformationService  -->
<g id="edge4" class="edge">
<title>DeviceInformationModule&#45;&gt;DeviceInformationService </title>
<path fill="none" stroke="black" stroke-dasharray="5,2" d="M456.29,-66.8C588.1,-66.8 830,-66.8 830,-66.8 830,-66.8 830,-106.58 830,-106.58"/>
<polygon fill="black" stroke="black" points="826.5,-106.58 830,-116.58 833.5,-106.58 826.5,-106.58"/>
</g>
<!-- AppService -->
<g id="node4" class="node">
<title>AppService</title>
<ellipse fill="#fdb462" stroke="black" cx="81" cy="-66.8" rx="56.75" ry="18"/>
<text text-anchor="middle" x="81" y="-62.6" font-family="Times,serif" font-size="14.00">AppService</text>
</g>
<!-- AppService&#45;&gt;AppModule -->
<g id="edge3" class="edge">
<title>AppService&#45;&gt;AppModule</title>
<path fill="none" stroke="black" d="M81,-85.02C81,-105.17 81,-134.8 81,-134.8 81,-134.8 165.09,-134.8 165.09,-134.8"/>
<polygon fill="black" stroke="black" points="165.09,-138.3 175.09,-134.8 165.09,-131.3 165.09,-138.3"/>
</g>
<!-- DeviceInformationService -->
<g id="node6" class="node">
<title>DeviceInformationService</title>
<ellipse fill="#fdb462" stroke="black" cx="609" cy="-134.8" rx="113.42" ry="18"/>
<text text-anchor="middle" x="609" y="-130.6" font-family="Times,serif" font-size="14.00">DeviceInformationService</text>
</g>
<!-- DeviceInformationService&#45;&gt;DeviceInformationModule -->
<g id="edge5" class="edge">
<title>DeviceInformationService&#45;&gt;DeviceInformationModule</title>
<path fill="none" stroke="black" d="M501.79,-128.8C450.74,-128.8 400.68,-128.8 400.68,-128.8 400.68,-128.8 400.68,-95.07 400.68,-95.07"/>
<polygon fill="black" stroke="black" points="404.18,-95.07 400.68,-85.07 397.18,-95.07 404.18,-95.07"/>
</g>
</g>
</svg>
